<svg width="40" height="39" viewBox="0 0 40 39" fill="none" xmlns="http://www.w3.org/2000/svg">
<path d="M18.8215 0.00783157C16.5022 0.138943 14.6794 0.492638 12.7435 1.18174C10.9616 1.819 9.0729 2.87094 7.55499 4.06924C3.57323 7.21896 0.886233 11.9542 0.172847 17.0798C0.0377123 18.0555 0 18.6409 0 19.7935C0 20.8607 0.0157136 21.1808 0.125707 22.0803C0.342551 23.8671 0.79824 25.4191 1.63419 27.2089C4.04148 32.368 8.84978 36.5453 14.2489 38.1735C16.2351 38.7711 17.8535 38.9937 20.2671 38.9998C21.5996 39.0028 22.0113 38.9754 23.1584 38.8168C25.5374 38.4875 27.9478 37.6826 30.0942 36.4995C32.1464 35.3683 33.8812 33.9566 35.4337 32.1576C35.6285 31.932 35.8642 31.6575 35.9585 31.5508C36.2382 31.2337 36.719 30.5904 37.0396 30.1147C38.4035 28.084 39.3683 25.6051 39.7643 23.117C39.9497 21.9614 40 21.2631 40 19.9917C40.0031 18.2689 39.8397 16.8846 39.45 15.296C38.2401 10.3778 34.9591 5.77368 30.7008 3.01729C29.3589 2.14525 27.7372 1.37992 26.2539 0.910362C25.5782 0.693878 24.1452 0.379822 23.2526 0.251759C22.6273 0.160286 22.3256 0.126747 21.6027 0.0627174C21.1188 0.0200272 19.2395 -0.0165596 18.8215 0.00783157ZM21.7284 0.724369C22.775 0.800598 24.1515 1.04758 25.198 1.34944C25.6348 1.47445 26.4236 1.77021 26.961 2.00804C28.2212 2.57212 29.0352 3.23378 29.4657 4.04789C29.6386 4.37415 29.6354 4.44123 29.4437 4.92908C28.966 6.15178 28.1929 7.34398 27.1213 8.51178C26.8856 8.77096 26.8604 8.78925 26.675 8.83804C26.4047 8.90816 25.9962 8.95085 25.2985 8.98439C24.9685 9.00269 24.5631 9.03013 24.3997 9.04537C23.6423 9.1216 21.7693 9.22527 20.7856 9.24662L19.89 9.26491L19.3872 8.75266C17.8158 7.14579 16.411 5.62428 16.1282 5.21875C15.8705 4.84676 15.7888 4.38329 15.8956 3.91068C16.0936 3.05693 17.027 2.00499 18.3344 1.16344C19.01 0.730469 19.0195 0.727417 19.9686 0.693878C20.6034 0.669487 21.1282 0.681683 21.7284 0.724369ZM31.2319 5.0358C31.5053 5.10593 31.8133 5.24009 32.335 5.52061C32.5958 5.66087 32.8787 5.81028 32.9667 5.85296C33.3783 6.0542 34.5788 7.22201 35.3237 8.14589C36.873 10.0668 38.0138 12.5153 38.4883 14.9454C38.5983 15.4973 38.614 15.7199 38.5732 16.0766C38.46 17.092 38.0106 17.9366 36.7253 19.5648C36.3576 20.0282 36.3513 20.0374 36.1785 20.0892L36.0025 20.1411L35.6128 19.9703C33.6015 19.0952 31.7756 18.086 30.3677 17.0767L29.9717 16.7932L29.8114 16.4608C29.3714 15.5491 29.0289 14.613 28.4035 12.5976C28.1521 11.7926 27.8975 10.9907 27.841 10.8139C27.687 10.3534 27.665 10.2376 27.665 9.85644C27.665 9.40822 27.7592 9.05147 28.0075 8.55142C28.2306 8.10015 28.4632 7.7556 29.1703 6.83782C29.4657 6.45364 29.7926 5.99322 29.9025 5.81638C30.2765 5.20045 30.3739 5.09069 30.6096 5.02056C30.7542 4.98092 31.0339 4.98702 31.2319 5.0358ZM14.8271 5.24924C15.264 5.32547 15.6599 5.57244 15.9334 5.94444C16.0622 6.11823 16.3168 6.40485 16.8259 6.94149C17.907 8.08796 18.3312 8.6307 18.6486 9.27406C18.9032 9.79241 18.988 10.1004 19.0163 10.6035C19.0352 10.948 19.032 10.9663 18.9315 11.2438C18.878 11.4023 18.7021 11.8871 18.5481 12.3232C17.9761 13.9239 17.3884 15.6711 17.2313 16.2199L17.1559 16.4882L15.8831 17.1834C14.4689 17.961 13.5575 18.4458 12.7561 18.8482C12.4638 18.9977 12.1527 19.1715 12.0647 19.2385C11.697 19.5221 11.2068 19.6807 10.8234 19.641C10.5908 19.6166 10.2514 19.5069 10.0188 19.3788C9.5663 19.1288 8.84977 18.4946 7.97296 17.5646C6.85732 16.3785 6.49905 15.8662 6.31992 15.1893L6.25392 14.9332L6.32306 14.7259C6.36077 14.613 6.57133 13.9849 6.78818 13.3324C7.00502 12.6799 7.25958 11.9481 7.35071 11.7011C8.19609 9.44176 9.04776 8.0971 10.2514 7.12139C10.6882 6.77074 11.0025 6.57865 11.8416 6.15482C13.1521 5.49317 13.6738 5.29802 14.3275 5.22485C14.5097 5.2035 14.582 5.20655 14.8271 5.24924ZM7.27843 6.45974C7.76869 6.69756 8.11438 7.18847 8.21495 7.79829L8.25266 8.03002L8.0421 8.39897C6.93274 10.3626 5.91765 13.0336 5.35512 15.4942C5.22312 16.0644 4.97485 16.4456 4.19233 17.278C3.96606 17.5219 3.7115 17.8024 3.63293 17.903C3.55122 18.0036 3.26524 18.339 2.99497 18.6501C2.68699 19.0068 2.46071 19.2965 2.38529 19.4337C2.32244 19.5556 2.21244 19.7172 2.14645 19.7904C2.01445 19.9337 1.74733 20.0831 1.62162 20.0831C1.46763 20.0831 1.29164 20.0069 1.16279 19.8849C0.873664 19.6136 0.760527 19.1776 0.823381 18.6013C0.842237 18.4183 0.867378 18.1165 0.876806 17.9335C0.901947 17.4762 0.945945 17.0737 1.03708 16.5187C1.53048 13.5337 2.91955 10.5882 5.27655 7.52082C5.39911 7.36227 5.54682 7.15188 5.60653 7.05431C5.80138 6.74025 6.10307 6.48717 6.41734 6.37131C6.48962 6.34692 6.63104 6.33472 6.78818 6.33777C7.00816 6.34692 7.07102 6.36216 7.27843 6.45974ZM17.9132 17.8237C19.0697 18.3086 20.2043 19.0434 21.4142 20.0831C21.8164 20.4277 22.7341 21.2509 22.8661 21.3851L22.9824 21.501L22.841 22.5682C22.533 24.9465 22.269 26.532 21.9453 27.9498C21.7724 28.6969 21.6562 28.9103 21.1659 29.3829C20.6348 29.8921 20.0188 30.2336 18.9 30.6391C17.2124 31.249 16.7882 31.3648 16.2791 31.3648C15.7888 31.3648 15.0251 31.1636 14.4532 30.8831C13.8906 30.6117 13.3815 30.2824 12.2501 29.4591C11.8322 29.1573 11.3765 28.828 11.2319 28.7273C10.7385 28.3798 10.2828 27.8462 9.98113 27.2638C9.68886 26.6966 9.5663 26.2271 9.5443 25.5715C9.52544 25.0806 9.56001 24.7422 9.67315 24.2604C9.71715 24.0836 9.76743 23.7756 9.78629 23.5744C9.96228 21.7662 10.7322 20.4765 12.0019 19.8606C12.1244 19.8026 12.3476 19.7111 12.5016 19.6593C12.8567 19.5373 13.1709 19.394 13.7461 19.0922C15.3205 18.2659 15.7385 18.0738 16.3859 17.8908C16.7473 17.7872 17.1841 17.7109 17.4576 17.7079C17.5958 17.7048 17.6901 17.7292 17.9132 17.8237ZM30.6285 18.2018C32.8849 19.269 34.2174 20.0557 35.4557 21.0467L35.7856 21.3089L35.7636 21.4979C35.7542 21.5985 35.7102 22.1016 35.6662 22.6139C35.5028 24.5684 35.4179 25.2422 35.2231 26.1204C35.088 26.7302 34.7423 27.2699 34.0792 27.9224C33.4852 28.5048 33.0986 28.7822 31.2759 29.947C30.9082 30.1818 30.4368 30.4989 30.2294 30.6483C29.3809 31.2673 28.768 31.5874 28.2872 31.6667C28.0861 31.7002 28.0515 31.6972 27.7184 31.6118C26.2916 31.2429 24.7957 30.505 23.0798 29.328C22.7121 29.0749 22.577 28.9652 22.577 28.9194C22.577 28.8158 22.731 27.7059 22.8472 26.9589C22.9824 26.099 23.4852 23.1597 23.5041 23.1322C23.5103 23.12 23.5543 22.8456 23.5983 22.5194C23.746 21.4339 23.8058 21.318 24.5411 20.7844C24.7328 20.6442 25.176 20.3027 25.5311 20.0252C26.3765 19.3605 26.763 19.0708 27.1653 18.8086C28.0986 18.2018 28.8969 17.8908 29.7328 17.7994C29.7517 17.7994 30.1571 17.9793 30.6285 18.2018ZM1.5022 21.0345C1.51163 21.0741 1.55248 21.3302 1.59962 21.6077C1.86046 23.1993 2.38843 24.9495 3.09553 26.5625C3.33752 27.1205 3.96605 28.3615 4.10433 28.5505C4.34632 28.895 4.41231 29.3921 4.28661 29.9439C4.25204 30.0933 4.22061 30.2214 4.21433 30.2275C4.19861 30.2428 3.45066 29.0262 3.12382 28.456C2.75298 27.8096 2.22187 26.7363 1.98303 26.1509C1.6719 25.3916 1.18793 23.7817 1.01194 22.9188C0.955373 22.6383 0.93966 22.4645 0.93966 22.0498C0.93966 21.5528 0.942802 21.5254 1.02137 21.3638C1.11879 21.1686 1.20993 21.068 1.34506 21.0101C1.47706 20.9552 1.48648 20.9582 1.5022 21.0345ZM36.6813 27.6968C36.983 27.834 37.0396 28.2669 36.829 28.8188C36.6907 29.1817 36.5462 29.4164 35.8422 30.4348C34.692 32.0997 33.0609 33.6334 31.0779 34.9231C29.7737 35.7677 28.0169 36.6611 27.2281 36.8776C26.9673 36.9477 26.8699 36.9569 26.4739 36.9599C26.0653 36.9599 26.0025 36.9538 25.8642 36.8898C25.6411 36.7922 25.5122 36.6886 25.4179 36.5331L25.3362 36.3989L25.6756 35.9171C26.653 34.5267 27.2093 33.8315 27.9321 33.112C28.4601 32.5814 28.7649 32.3375 29.2237 32.0631C30.0785 31.56 30.8579 31.0386 32.6964 29.7488C34.1326 28.7395 34.4689 28.5109 35.1822 28.0504C35.6756 27.7333 35.7196 27.7089 35.9365 27.6754C36.0653 27.6571 36.191 27.6358 36.2162 27.6297C36.3042 27.6114 36.5776 27.651 36.6813 27.6968ZM8.82777 27.9041C9.16718 27.9468 9.31803 28.0108 9.69201 28.2791C10.1697 28.6237 10.6474 28.9865 11.3733 29.5659C13.0484 30.9014 13.7272 31.3831 14.6323 31.8801C14.9811 32.0722 15.0346 32.1149 15.1823 32.3009C15.7071 32.9808 16.1439 33.8895 16.3293 34.7066C16.3828 34.9384 16.3985 35.1122 16.3985 35.4659C16.4016 36.0025 16.345 36.2342 16.1345 36.5422C16.0119 36.7191 15.9994 36.7282 15.7794 36.7922C15.2168 36.9599 14.6103 37.0362 13.8403 37.0362H13.3438L12.9101 36.8959C10.9145 36.2556 8.90319 35.0664 7.02073 33.4108C6.33249 32.804 5.78881 32.2887 5.67253 32.1271C5.39597 31.7429 5.20741 31.2642 5.11627 30.7093C5.08799 30.5202 5.05971 30.0994 5.05028 29.6085L5.03142 28.8127L5.18541 28.7761C5.26712 28.7548 5.57196 28.6572 5.85794 28.5535C7.401 28.0108 7.67127 27.9315 8.1521 27.8888C8.41608 27.8675 8.52293 27.8675 8.82777 27.9041ZM21.3356 37.0667C21.8164 37.1063 22.3413 37.1703 22.9384 37.2618C23.1992 37.3045 23.5229 37.3533 23.6612 37.3716C24.1766 37.4478 24.494 37.5911 24.45 37.7283C24.4123 37.8411 24.0886 37.9478 23.6141 38.0088C23.4852 38.0241 23.1866 38.0668 22.9541 38.1003C22.7215 38.1369 22.1684 38.1979 21.7284 38.2406C19.2017 38.4845 17.3664 38.329 16.0245 37.7527C15.8014 37.6551 15.7982 37.6582 16.3073 37.5118C17.247 37.2435 18.0892 37.1093 19.3714 37.024C19.648 37.0057 20.9239 37.0331 21.3356 37.0667Z" fill="white"/>
</svg>
