<svg width="20" height="20" viewBox="0 0 20 20" fill="none" xmlns="http://www.w3.org/2000/svg">
<g clip-path="url(#clip0_4006_87)">
<path d="M15 16.6667C15 15.3406 14.4732 14.0688 13.5355 13.1312C12.5979 12.1935 11.3261 11.6667 10 11.6667C8.67392 11.6667 7.40215 12.1935 6.46447 13.1312C5.52678 14.0688 5 15.3406 5 16.6667" stroke="#E2E8F0" stroke-width="1.66667" stroke-linecap="round" stroke-linejoin="round"/>
<path d="M10 11.6667C11.8409 11.6667 13.3333 10.1743 13.3333 8.33333C13.3333 6.49238 11.8409 5 10 5C8.15905 5 6.66667 6.49238 6.66667 8.33333C6.66667 10.1743 8.15905 11.6667 10 11.6667Z" stroke="#E2E8F0" stroke-width="1.66667" stroke-linecap="round" stroke-linejoin="round"/>
<path d="M10 18.3334C14.6024 18.3334 18.3333 14.6024 18.3333 10C18.3333 5.39765 14.6024 1.66669 10 1.66669C5.39763 1.66669 1.66667 5.39765 1.66667 10C1.66667 14.6024 5.39763 18.3334 10 18.3334Z" stroke="#E2E8F0" stroke-width="1.66667" stroke-linecap="round" stroke-linejoin="round"/>
</g>
<defs>
<clipPath id="clip0_4006_87">
<rect width="20" height="20" fill="white"/>
</clipPath>
</defs>
</svg>
